# xmcd
#
# Track frame offsets: 
#        150
#        19686
#        36538
#        57039
#        72989
#        94573
#        113486
#        129683
#        148146
#        174894
#        186652
#        199370
#
# Disc length: 2793 seconds
#
# Revision: 4
# Processed by: cddbd v1.5.2PL0 Copyright (c) Steve Scherf et al.
# Submitted via: ExactAudioCopyFreeDBPlugin 1.0
#
DISCID=af0ae70c
DTITLE=Brownie McGhee - Last Great Blues Hero
DYEAR=2000
DGENRE=Blues
TTITLE0=Good Morning Blues
TTITLE1=Jump Little Children, Jump
TTITLE2=Walk On
TTITLE3=Drinking Wine
TTITLE4=Stranger Blues
TTITLE5=Just A Dream
TTITLE6=Key To The Highway
TTITLE7=John Henry
TTITLE8=Rainy Day
TTITLE9=Rock Island Line
TTITLE10=Christine
TTITLE11=Pick A Bale Of Cotton
EXTD=ID3G:   0
EXTT0=
EXTT1=
EXTT2=
EXTT3=
EXTT4=
EXTT5=
EXTT6=
EXTT7=
EXTT8=
EXTT9=
EXTT10=
EXTT11=
PLAYORDER=
